<mxfile host="app.diagrams.net" modified="2023-06-10T03:51:09.992Z" agent="Mozilla/5.0 (Windows NT 10.0; Win64; x64; rv:109.0) Gecko/20100101 Firefox/115.0" version="21.3.8" etag="YiaZGwtG4MvTg9uFKdxr" type="github">
  <diagram name="Page-1" id="xAHS5ZDnEqnEfjdSPril">
    <mxGraphModel>
      <root>
        <mxCell id="0" />
        <mxCell id="1" parent="0" />
      </root>
    </mxGraphModel>
  </diagram>
</mxfile>
